<mxfile host="app.diagrams.net" modified="2022-03-03T14:47:54.931Z" agent="5.0 (Windows NT 10.0; Win64; x64) AppleWebKit/537.36 (KHTML, like Gecko) Chrome/98.0.4758.102 Safari/537.36" etag="o1TOZL8eOFYrSeJGSHLd" version="16.6.5" type="github" pages="3">
  <diagram id="KRHu_80R7PJStwcegiyl" name="PÃ¡gina-1">
    <mxGraphModel dx="2162" dy="708" grid="1" gridSize="10" guides="1" tooltips="1" connect="1" arrows="1" fold="1" page="1" pageScale="1" pageWidth="827" pageHeight="1169" math="0" shadow="0">
      <root>
        <mxCell id="0" />
        <mxCell id="1" parent="0" />
        <mxCell id="XuN8xmvtj4Sz8nJlnt_W-7" style="edgeStyle=orthogonalEdgeStyle;rounded=0;orthogonalLoop=1;jettySize=auto;html=1;entryDx=0;entryDy=0;" edge="1" parent="1" source="p8cwWDW_OP8U_E5JMbLY-1" target="p8cwWDW_OP8U_E5JMbLY-34">
          <mxGeometry relative="1" as="geometry">
            <Array as="points">
              <mxPoint x="335" y="61.81999999999999" />
              <mxPoint x="335" y="110" />
              <mxPoint x="335" y="210" />
              <mxPoint x="335" y="310" />
              <mxPoint x="335" y="410" />
              <mxPoint x="335" y="510" />
              <mxPoint x="425" y="510" />
              <mxPoint x="573.5" y="510" />
              <mxPoint x="573.5" y="515" />
            </Array>
          </mxGeometry>
        </mxCell>
        <mxCell id="XuN8xmvtj4Sz8nJlnt_W-8" style="edgeStyle=orthogonalEdgeStyle;rounded=0;orthogonalLoop=1;jettySize=auto;html=1;entryDx=0;entryDy=0;" edge="1" parent="1" source="p8cwWDW_OP8U_E5JMbLY-1" target="p8cwWDW_OP8U_E5JMbLY-32">
          <mxGeometry relative="1" as="geometry">
            <Array as="points">
              <mxPoint x="335" y="61.81999999999999" />
              <mxPoint x="335" y="110" />
              <mxPoint x="335" y="210" />
              <mxPoint x="335" y="310" />
              <mxPoint x="335" y="410" />
              <mxPoint x="335" y="510" />
              <mxPoint x="235" y="510" />
              <mxPoint x="235" y="515" />
            </Array>
          </mxGeometry>
        </mxCell>
        <mxCell id="XuN8xmvtj4Sz8nJlnt_W-9" style="edgeStyle=orthogonalEdgeStyle;rounded=0;orthogonalLoop=1;jettySize=auto;html=1;entryDx=0;entryDy=0;" edge="1" parent="1" source="p8cwWDW_OP8U_E5JMbLY-1" target="p8cwWDW_OP8U_E5JMbLY-33">
          <mxGeometry relative="1" as="geometry">
            <Array as="points">
              <mxPoint x="335" y="61.81999999999999" />
              <mxPoint x="335" y="110" />
              <mxPoint x="335" y="210" />
              <mxPoint x="335" y="310" />
              <mxPoint x="335" y="410" />
              <mxPoint x="335" y="510" />
              <mxPoint x="425" y="510" />
              <mxPoint x="425" y="515" />
            </Array>
          </mxGeometry>
        </mxCell>
        <mxCell id="XuN8xmvtj4Sz8nJlnt_W-10" style="edgeStyle=orthogonalEdgeStyle;rounded=0;orthogonalLoop=1;jettySize=auto;html=1;entryDx=0;entryDy=0;entryX=0.5;entryY=0;" edge="1" parent="1" source="p8cwWDW_OP8U_E5JMbLY-1" target="p8cwWDW_OP8U_E5JMbLY-35">
          <mxGeometry relative="1" as="geometry">
            <Array as="points">
              <mxPoint x="335" y="610" />
              <mxPoint x="39" y="610" />
            </Array>
          </mxGeometry>
        </mxCell>
        <mxCell id="XuN8xmvtj4Sz8nJlnt_W-17" style="edgeStyle=orthogonalEdgeStyle;rounded=0;orthogonalLoop=1;jettySize=auto;html=1;entryDx=0;entryDy=0;entryX=0.5;entryY=0;" edge="1" parent="1" source="p8cwWDW_OP8U_E5JMbLY-1" target="p8cwWDW_OP8U_E5JMbLY-4">
          <mxGeometry relative="1" as="geometry">
            <Array as="points">
              <mxPoint x="335" y="610" />
              <mxPoint x="187" y="610" />
            </Array>
          </mxGeometry>
        </mxCell>
        <mxCell id="XuN8xmvtj4Sz8nJlnt_W-19" style="edgeStyle=orthogonalEdgeStyle;rounded=0;orthogonalLoop=1;jettySize=auto;html=1;entryDx=0;entryDy=0;" edge="1" parent="1" source="p8cwWDW_OP8U_E5JMbLY-1" target="XuN8xmvtj4Sz8nJlnt_W-5">
          <mxGeometry relative="1" as="geometry">
            <Array as="points">
              <mxPoint x="335" y="61.81999999999999" />
              <mxPoint x="335" y="110" />
              <mxPoint x="335" y="210" />
              <mxPoint x="425" y="210" />
              <mxPoint x="573.5" y="210" />
              <mxPoint x="573.5" y="215" />
            </Array>
          </mxGeometry>
        </mxCell>
        <mxCell id="XuN8xmvtj4Sz8nJlnt_W-20" style="edgeStyle=orthogonalEdgeStyle;rounded=0;orthogonalLoop=1;jettySize=auto;html=1;" edge="1" parent="1" source="p8cwWDW_OP8U_E5JMbLY-1" target="XuN8xmvtj4Sz8nJlnt_W-4">
          <mxGeometry relative="1" as="geometry">
            <Array as="points">
              <mxPoint x="335" y="61.81999999999999" />
              <mxPoint x="335" y="110" />
              <mxPoint x="335" y="210" />
              <mxPoint x="425" y="210" />
              <mxPoint x="425" y="215" />
            </Array>
          </mxGeometry>
        </mxCell>
        <mxCell id="XuN8xmvtj4Sz8nJlnt_W-21" style="edgeStyle=orthogonalEdgeStyle;rounded=0;orthogonalLoop=1;jettySize=auto;html=1;entryDx=0;entryDy=0;" edge="1" parent="1" source="p8cwWDW_OP8U_E5JMbLY-1" target="XuN8xmvtj4Sz8nJlnt_W-3">
          <mxGeometry relative="1" as="geometry">
            <Array as="points">
              <mxPoint x="335" y="61.81999999999999" />
              <mxPoint x="335" y="110" />
              <mxPoint x="335" y="210" />
              <mxPoint x="235" y="210" />
              <mxPoint x="235" y="215" />
            </Array>
          </mxGeometry>
        </mxCell>
        <mxCell id="XuN8xmvtj4Sz8nJlnt_W-25" style="edgeStyle=orthogonalEdgeStyle;rounded=0;orthogonalLoop=1;jettySize=auto;html=1;entryDx=0;entryDy=0;" edge="1" parent="1" source="p8cwWDW_OP8U_E5JMbLY-1" target="p8cwWDW_OP8U_E5JMbLY-3">
          <mxGeometry relative="1" as="geometry">
            <Array as="points">
              <mxPoint x="335" y="61.81999999999999" />
              <mxPoint x="335" y="110" />
              <mxPoint x="335" y="210" />
              <mxPoint x="335" y="310" />
              <mxPoint x="335" y="410" />
              <mxPoint x="425" y="410" />
              <mxPoint x="573.5" y="410" />
              <mxPoint x="573.5" y="415" />
            </Array>
          </mxGeometry>
        </mxCell>
        <mxCell id="XuN8xmvtj4Sz8nJlnt_W-26" style="edgeStyle=orthogonalEdgeStyle;rounded=0;orthogonalLoop=1;jettySize=auto;html=1;entryDx=0;entryDy=0;" edge="1" parent="1" source="p8cwWDW_OP8U_E5JMbLY-1" target="XuN8xmvtj4Sz8nJlnt_W-15">
          <mxGeometry relative="1" as="geometry">
            <Array as="points">
              <mxPoint x="335" y="61.81999999999999" />
              <mxPoint x="335" y="110" />
              <mxPoint x="425" y="110" />
              <mxPoint x="573.5" y="110" />
              <mxPoint x="573.5" y="115" />
            </Array>
          </mxGeometry>
        </mxCell>
        <mxCell id="XuN8xmvtj4Sz8nJlnt_W-27" style="edgeStyle=orthogonalEdgeStyle;rounded=0;orthogonalLoop=1;jettySize=auto;html=1;entryDx=0;entryDy=0;" edge="1" parent="1" source="p8cwWDW_OP8U_E5JMbLY-1" target="XuN8xmvtj4Sz8nJlnt_W-14">
          <mxGeometry relative="1" as="geometry">
            <Array as="points">
              <mxPoint x="335" y="61.81999999999999" />
              <mxPoint x="335" y="110" />
              <mxPoint x="425" y="110" />
              <mxPoint x="425" y="115" />
            </Array>
          </mxGeometry>
        </mxCell>
        <mxCell id="XuN8xmvtj4Sz8nJlnt_W-28" style="edgeStyle=orthogonalEdgeStyle;rounded=0;orthogonalLoop=1;jettySize=auto;html=1;entryDx=0;entryDy=0;" edge="1" parent="1" source="p8cwWDW_OP8U_E5JMbLY-1" target="XuN8xmvtj4Sz8nJlnt_W-13">
          <mxGeometry relative="1" as="geometry">
            <Array as="points">
              <mxPoint x="335" y="61.81999999999999" />
              <mxPoint x="335" y="110" />
              <mxPoint x="235" y="110" />
              <mxPoint x="235" y="115" />
            </Array>
          </mxGeometry>
        </mxCell>
        <mxCell id="XuN8xmvtj4Sz8nJlnt_W-29" style="edgeStyle=orthogonalEdgeStyle;rounded=0;orthogonalLoop=1;jettySize=auto;html=1;entryDx=0;entryDy=0;" edge="1" parent="1" source="p8cwWDW_OP8U_E5JMbLY-1" target="p8cwWDW_OP8U_E5JMbLY-13">
          <mxGeometry relative="1" as="geometry">
            <Array as="points">
              <mxPoint x="335" y="61.81999999999999" />
              <mxPoint x="335" y="110" />
              <mxPoint x="335" y="210" />
              <mxPoint x="335" y="310" />
              <mxPoint x="80" y="310" />
              <mxPoint x="80" y="315" />
            </Array>
          </mxGeometry>
        </mxCell>
        <mxCell id="XuN8xmvtj4Sz8nJlnt_W-30" style="edgeStyle=orthogonalEdgeStyle;rounded=0;orthogonalLoop=1;jettySize=auto;html=1;entryDx=0;entryDy=0;" edge="1" parent="1" source="p8cwWDW_OP8U_E5JMbLY-1" target="p8cwWDW_OP8U_E5JMbLY-14">
          <mxGeometry relative="1" as="geometry">
            <Array as="points">
              <mxPoint x="335" y="61.81999999999999" />
              <mxPoint x="335" y="110" />
              <mxPoint x="335" y="210" />
              <mxPoint x="335" y="310" />
              <mxPoint x="235" y="310" />
              <mxPoint x="235" y="315" />
            </Array>
          </mxGeometry>
        </mxCell>
        <mxCell id="XuN8xmvtj4Sz8nJlnt_W-31" style="edgeStyle=orthogonalEdgeStyle;rounded=0;orthogonalLoop=1;jettySize=auto;html=1;entryDx=0;entryDy=0;" edge="1" parent="1" source="p8cwWDW_OP8U_E5JMbLY-1" target="p8cwWDW_OP8U_E5JMbLY-15">
          <mxGeometry relative="1" as="geometry">
            <Array as="points">
              <mxPoint x="335" y="61.81999999999999" />
              <mxPoint x="335" y="110" />
              <mxPoint x="335" y="210" />
              <mxPoint x="335" y="310" />
              <mxPoint x="425" y="310" />
              <mxPoint x="425" y="315" />
            </Array>
          </mxGeometry>
        </mxCell>
        <mxCell id="XuN8xmvtj4Sz8nJlnt_W-32" style="edgeStyle=orthogonalEdgeStyle;rounded=0;orthogonalLoop=1;jettySize=auto;html=1;entryDx=0;entryDy=0;" edge="1" parent="1" source="p8cwWDW_OP8U_E5JMbLY-1" target="p8cwWDW_OP8U_E5JMbLY-16">
          <mxGeometry relative="1" as="geometry">
            <Array as="points">
              <mxPoint x="335" y="61.81999999999999" />
              <mxPoint x="335" y="110" />
              <mxPoint x="335" y="210" />
              <mxPoint x="335" y="310" />
              <mxPoint x="425" y="310" />
              <mxPoint x="573.5" y="310" />
              <mxPoint x="573.5" y="315" />
            </Array>
          </mxGeometry>
        </mxCell>
        <mxCell id="XuN8xmvtj4Sz8nJlnt_W-33" style="edgeStyle=orthogonalEdgeStyle;rounded=0;orthogonalLoop=1;jettySize=auto;html=1;entryDx=0;entryDy=0;" edge="1" parent="1" source="p8cwWDW_OP8U_E5JMbLY-1" target="p8cwWDW_OP8U_E5JMbLY-25">
          <mxGeometry relative="1" as="geometry">
            <Array as="points">
              <mxPoint x="335" y="61.81999999999999" />
              <mxPoint x="335" y="110" />
              <mxPoint x="335" y="210" />
              <mxPoint x="335" y="310" />
              <mxPoint x="335" y="410" />
              <mxPoint x="80" y="410" />
              <mxPoint x="80" y="415" />
            </Array>
          </mxGeometry>
        </mxCell>
        <mxCell id="XuN8xmvtj4Sz8nJlnt_W-34" style="edgeStyle=orthogonalEdgeStyle;rounded=0;orthogonalLoop=1;jettySize=auto;html=1;" edge="1" parent="1" source="p8cwWDW_OP8U_E5JMbLY-1" target="p8cwWDW_OP8U_E5JMbLY-29">
          <mxGeometry relative="1" as="geometry">
            <Array as="points">
              <mxPoint x="335" y="61.81999999999999" />
              <mxPoint x="335" y="110" />
              <mxPoint x="335" y="210" />
              <mxPoint x="335" y="310" />
              <mxPoint x="335" y="410" />
              <mxPoint x="425" y="410" />
              <mxPoint x="425" y="415" />
            </Array>
          </mxGeometry>
        </mxCell>
        <mxCell id="XuN8xmvtj4Sz8nJlnt_W-35" style="edgeStyle=orthogonalEdgeStyle;rounded=0;orthogonalLoop=1;jettySize=auto;html=1;entryDx=0;entryDy=0;" edge="1" parent="1" source="p8cwWDW_OP8U_E5JMbLY-1" target="p8cwWDW_OP8U_E5JMbLY-27">
          <mxGeometry relative="1" as="geometry">
            <Array as="points">
              <mxPoint x="335" y="61.81999999999999" />
              <mxPoint x="335" y="110" />
              <mxPoint x="335" y="210" />
              <mxPoint x="335" y="310" />
              <mxPoint x="335" y="410" />
              <mxPoint x="235" y="410" />
              <mxPoint x="235" y="415" />
            </Array>
          </mxGeometry>
        </mxCell>
        <mxCell id="XuN8xmvtj4Sz8nJlnt_W-36" style="edgeStyle=orthogonalEdgeStyle;rounded=0;orthogonalLoop=1;jettySize=auto;html=1;" edge="1" parent="1" source="p8cwWDW_OP8U_E5JMbLY-1" target="p8cwWDW_OP8U_E5JMbLY-31">
          <mxGeometry relative="1" as="geometry">
            <Array as="points">
              <mxPoint x="335" y="61.81999999999999" />
              <mxPoint x="335" y="110" />
              <mxPoint x="335" y="210" />
              <mxPoint x="335" y="310" />
              <mxPoint x="335" y="410" />
              <mxPoint x="335" y="510" />
              <mxPoint x="80" y="510" />
              <mxPoint x="80" y="515" />
            </Array>
          </mxGeometry>
        </mxCell>
        <mxCell id="XuN8xmvtj4Sz8nJlnt_W-37" style="edgeStyle=orthogonalEdgeStyle;rounded=0;orthogonalLoop=1;jettySize=auto;html=1;" edge="1" parent="1" source="p8cwWDW_OP8U_E5JMbLY-1" target="XuN8xmvtj4Sz8nJlnt_W-1">
          <mxGeometry relative="1" as="geometry">
            <Array as="points">
              <mxPoint x="335" y="61.81999999999999" />
              <mxPoint x="335" y="110" />
              <mxPoint x="80" y="110" />
              <mxPoint x="80" y="115" />
            </Array>
          </mxGeometry>
        </mxCell>
        <mxCell id="XuN8xmvtj4Sz8nJlnt_W-39" style="edgeStyle=orthogonalEdgeStyle;rounded=0;orthogonalLoop=1;jettySize=auto;html=1;entryDx=0;entryDy=0;" edge="1" parent="1" source="p8cwWDW_OP8U_E5JMbLY-1" target="XuN8xmvtj4Sz8nJlnt_W-2">
          <mxGeometry relative="1" as="geometry">
            <Array as="points">
              <mxPoint x="335" y="61.81999999999999" />
              <mxPoint x="335" y="110" />
              <mxPoint x="335" y="210" />
              <mxPoint x="80" y="210" />
              <mxPoint x="80" y="215" />
            </Array>
          </mxGeometry>
        </mxCell>
        <mxCell id="XuN8xmvtj4Sz8nJlnt_W-41" style="edgeStyle=orthogonalEdgeStyle;rounded=0;orthogonalLoop=1;jettySize=auto;html=1;entryX=0.5;entryY=0;entryDx=0;entryDy=0;" edge="1" parent="1" source="p8cwWDW_OP8U_E5JMbLY-1" target="p8cwWDW_OP8U_E5JMbLY-5">
          <mxGeometry relative="1" as="geometry">
            <Array as="points">
              <mxPoint x="335" y="610" />
              <mxPoint x="630" y="610" />
              <mxPoint x="630" y="620" />
            </Array>
          </mxGeometry>
        </mxCell>
        <mxCell id="XuN8xmvtj4Sz8nJlnt_W-42" style="edgeStyle=orthogonalEdgeStyle;rounded=0;orthogonalLoop=1;jettySize=auto;html=1;entryX=0.5;entryY=0;entryDx=0;entryDy=0;" edge="1" parent="1" source="p8cwWDW_OP8U_E5JMbLY-1" target="p8cwWDW_OP8U_E5JMbLY-30">
          <mxGeometry relative="1" as="geometry">
            <Array as="points">
              <mxPoint x="335" y="610" />
              <mxPoint x="483" y="610" />
            </Array>
          </mxGeometry>
        </mxCell>
        <mxCell id="XuN8xmvtj4Sz8nJlnt_W-43" style="edgeStyle=orthogonalEdgeStyle;rounded=0;orthogonalLoop=1;jettySize=auto;html=1;" edge="1" parent="1" source="p8cwWDW_OP8U_E5JMbLY-1" target="p8cwWDW_OP8U_E5JMbLY-28">
          <mxGeometry relative="1" as="geometry">
            <mxPoint x="320" y="590" as="targetPoint" />
            <Array as="points" />
          </mxGeometry>
        </mxCell>
        <mxCell id="p8cwWDW_OP8U_E5JMbLY-1" value="Sistema" style="shape=hexagon;perimeter=hexagonPerimeter2;whiteSpace=wrap;html=1;fixedSize=1;" parent="1" vertex="1">
          <mxGeometry x="260" y="20" width="150" height="46.82" as="geometry" />
        </mxCell>
        <mxCell id="p8cwWDW_OP8U_E5JMbLY-3" value="&lt;span&gt;quantificar e mostrar as peÃ§as de ouro e diamantes que o jogador carrega consigo&lt;/span&gt;" style="ellipse;whiteSpace=wrap;html=1;" parent="1" vertex="1">
          <mxGeometry x="505" y="420" width="137" height="80" as="geometry" />
        </mxCell>
        <mxCell id="p8cwWDW_OP8U_E5JMbLY-4" value="&lt;span&gt;Apresentar e quantificar as peÃ§as de ouro, diamantes, poÃ§Ãµes mÃ¡gicas, machados e chaves&lt;/span&gt;" style="ellipse;whiteSpace=wrap;html=1;" parent="1" vertex="1">
          <mxGeometry x="112" y="620" width="150" height="90" as="geometry" />
        </mxCell>
        <mxCell id="p8cwWDW_OP8U_E5JMbLY-5" value="&lt;span&gt;Listar portas e as respectivas identificaÃ§Ãµes&lt;/span&gt;" style="ellipse;whiteSpace=wrap;html=1;" parent="1" vertex="1">
          <mxGeometry x="571" y="620" width="120" height="80" as="geometry" />
        </mxCell>
        <mxCell id="p8cwWDW_OP8U_E5JMbLY-13" value="&lt;span&gt;&amp;nbsp;colocadar peÃ§as de ouro de volta ao labirinto aleatoriamente&lt;/span&gt;" style="ellipse;whiteSpace=wrap;html=1;" parent="1" vertex="1">
          <mxGeometry x="20" y="320" width="120" height="80" as="geometry" />
        </mxCell>
        <mxCell id="p8cwWDW_OP8U_E5JMbLY-14" value="reiniciar o jogo apÃ³s a morte do jogador" style="ellipse;whiteSpace=wrap;html=1;" parent="1" vertex="1">
          <mxGeometry x="175" y="320" width="120" height="80" as="geometry" />
        </mxCell>
        <mxCell id="p8cwWDW_OP8U_E5JMbLY-15" value="impedir a coleta de peÃ§as de ouro e diamantes quando o troll estiver vivo na sala" style="ellipse;whiteSpace=wrap;html=1;" parent="1" vertex="1">
          <mxGeometry x="365" y="320" width="120" height="80" as="geometry" />
        </mxCell>
        <mxCell id="p8cwWDW_OP8U_E5JMbLY-16" value="Fazer o troll desaparecer" style="ellipse;whiteSpace=wrap;html=1;" parent="1" vertex="1">
          <mxGeometry x="513.5" y="320" width="120" height="80" as="geometry" />
        </mxCell>
        <mxCell id="p8cwWDW_OP8U_E5JMbLY-25" value="Desaparecer a chave do inventÃ¡rio" style="ellipse;whiteSpace=wrap;html=1;" parent="1" vertex="1">
          <mxGeometry x="20" y="420" width="120" height="80" as="geometry" />
        </mxCell>
        <mxCell id="p8cwWDW_OP8U_E5JMbLY-27" value="Trancar a porta" style="ellipse;whiteSpace=wrap;html=1;" parent="1" vertex="1">
          <mxGeometry x="175" y="420" width="120" height="80" as="geometry" />
        </mxCell>
        <mxCell id="p8cwWDW_OP8U_E5JMbLY-28" value="Decrementa a poÃ§Ã£o usada do iventÃ¡rio do jogador" style="ellipse;whiteSpace=wrap;html=1;" parent="1" vertex="1">
          <mxGeometry x="275" y="620" width="120" height="80" as="geometry" />
        </mxCell>
        <mxCell id="p8cwWDW_OP8U_E5JMbLY-29" value="decrementar poÃ§Ã£o, chave ou machado da sala ao ser capturado pelo jogador" style="ellipse;whiteSpace=wrap;html=1;" parent="1" vertex="1">
          <mxGeometry x="365" y="420" width="120" height="80" as="geometry" />
        </mxCell>
        <mxCell id="p8cwWDW_OP8U_E5JMbLY-30" value="Mostrar os tokens e contabilizar o total" style="ellipse;whiteSpace=wrap;html=1;" parent="1" vertex="1">
          <mxGeometry x="423" y="620" width="120" height="80" as="geometry" />
        </mxCell>
        <mxCell id="p8cwWDW_OP8U_E5JMbLY-31" value="verificar se a espaÃ§o no slot do inventÃ¡rio do jogador" style="ellipse;whiteSpace=wrap;html=1;" parent="1" vertex="1">
          <mxGeometry x="20" y="520" width="120" height="80" as="geometry" />
        </mxCell>
        <mxCell id="p8cwWDW_OP8U_E5JMbLY-32" value="Decrementar os tokens capturados da sala" style="ellipse;whiteSpace=wrap;html=1;" parent="1" vertex="1">
          <mxGeometry x="175" y="520" width="120" height="80" as="geometry" />
        </mxCell>
        <mxCell id="p8cwWDW_OP8U_E5JMbLY-33" value="Inserir poÃ§Ã£o, chave ou machado no inventÃ¡rio do jogador" style="ellipse;whiteSpace=wrap;html=1;" parent="1" vertex="1">
          <mxGeometry x="365" y="520" width="120" height="80" as="geometry" />
        </mxCell>
        <mxCell id="p8cwWDW_OP8U_E5JMbLY-34" value="Incrementar na sala itens largados pelo jogador" style="ellipse;whiteSpace=wrap;html=1;" parent="1" vertex="1">
          <mxGeometry x="513.5" y="520" width="120" height="80" as="geometry" />
        </mxCell>
        <mxCell id="p8cwWDW_OP8U_E5JMbLY-35" value="Retirar do inventÃ¡rio itens largados pelo jogador" style="ellipse;whiteSpace=wrap;html=1;" parent="1" vertex="1">
          <mxGeometry x="-21" y="620" width="120" height="80" as="geometry" />
        </mxCell>
        <mxCell id="XuN8xmvtj4Sz8nJlnt_W-1" value="Decrementa a poÃ§Ã£o usada do iventÃ¡rio do jogador" style="ellipse;whiteSpace=wrap;html=1;" vertex="1" parent="1">
          <mxGeometry x="20" y="120" width="120" height="80" as="geometry" />
        </mxCell>
        <mxCell id="XuN8xmvtj4Sz8nJlnt_W-2" value="Mostrar os tokens e contabilizar o total" style="ellipse;whiteSpace=wrap;html=1;" vertex="1" parent="1">
          <mxGeometry x="20" y="220" width="120" height="80" as="geometry" />
        </mxCell>
        <mxCell id="XuN8xmvtj4Sz8nJlnt_W-3" value="Destrancar a porta" style="ellipse;whiteSpace=wrap;html=1;" vertex="1" parent="1">
          <mxGeometry x="175" y="220" width="120" height="80" as="geometry" />
        </mxCell>
        <mxCell id="XuN8xmvtj4Sz8nJlnt_W-4" value="Colocar o jogador na sala conectada pela porta selecionada" style="ellipse;whiteSpace=wrap;html=1;" vertex="1" parent="1">
          <mxGeometry x="365" y="220" width="120" height="80" as="geometry" />
        </mxCell>
        <mxCell id="XuN8xmvtj4Sz8nJlnt_W-5" value="&lt;span&gt;Listar nÃºmero de trolls e seus respectivos nomes&lt;/span&gt;" style="ellipse;whiteSpace=wrap;html=1;" vertex="1" parent="1">
          <mxGeometry x="513.5" y="220" width="120" height="80" as="geometry" />
        </mxCell>
        <mxCell id="XuN8xmvtj4Sz8nJlnt_W-13" value="&lt;span&gt;Retirar a poÃ§Ã£o do inventÃ¡rio&lt;/span&gt;" style="ellipse;whiteSpace=wrap;html=1;" vertex="1" parent="1">
          <mxGeometry x="175" y="120" width="120" height="80" as="geometry" />
        </mxCell>
        <mxCell id="XuN8xmvtj4Sz8nJlnt_W-14" value="&lt;span style=&quot;color: rgb(51 , 51 , 51)&quot;&gt;Utilizar machado da sala pelo Troll - machado desaparece&lt;/span&gt;" style="ellipse;whiteSpace=wrap;html=1;" vertex="1" parent="1">
          <mxGeometry x="360" y="120" width="130" height="80" as="geometry" />
        </mxCell>
        <mxCell id="XuN8xmvtj4Sz8nJlnt_W-15" value="Listar poÃ§Ãµes mÃ¡gicas, machados e chaves no iventÃ¡rio" style="ellipse;whiteSpace=wrap;html=1;" vertex="1" parent="1">
          <mxGeometry x="513.5" y="120" width="120" height="80" as="geometry" />
        </mxCell>
      </root>
    </mxGraphModel>
  </diagram>
  <diagram id="WXObSvlNgrBl4VupW67s" name="PÃ¡gina-2">
    <mxGraphModel dx="5481" dy="848" grid="1" gridSize="10" guides="1" tooltips="1" connect="1" arrows="1" fold="1" page="1" pageScale="1" pageWidth="827" pageHeight="1169" math="0" shadow="0">
      <root>
        <mxCell id="G9pF4uTXSzu1Kpu80Hzo-0" />
        <mxCell id="G9pF4uTXSzu1Kpu80Hzo-1" parent="G9pF4uTXSzu1Kpu80Hzo-0" />
        <mxCell id="Tc7A6N6MrH_39aB0lbsp-0" style="edgeStyle=orthogonalEdgeStyle;rounded=0;orthogonalLoop=1;jettySize=auto;html=1;exitX=0;exitY=0.5;exitDx=0;exitDy=0;entryX=0.5;entryY=1;entryDx=0;entryDy=0;" edge="1" parent="G9pF4uTXSzu1Kpu80Hzo-1" source="G9pF4uTXSzu1Kpu80Hzo-2" target="G9pF4uTXSzu1Kpu80Hzo-3">
          <mxGeometry relative="1" as="geometry" />
        </mxCell>
        <mxCell id="Tc7A6N6MrH_39aB0lbsp-1" style="edgeStyle=orthogonalEdgeStyle;rounded=0;orthogonalLoop=1;jettySize=auto;html=1;exitX=0;exitY=0.5;exitDx=0;exitDy=0;" edge="1" parent="G9pF4uTXSzu1Kpu80Hzo-1" source="G9pF4uTXSzu1Kpu80Hzo-2" target="G9pF4uTXSzu1Kpu80Hzo-4">
          <mxGeometry relative="1" as="geometry" />
        </mxCell>
        <mxCell id="Tc7A6N6MrH_39aB0lbsp-2" style="edgeStyle=orthogonalEdgeStyle;rounded=0;orthogonalLoop=1;jettySize=auto;html=1;exitX=0;exitY=0.5;exitDx=0;exitDy=0;entryX=0.5;entryY=1;entryDx=0;entryDy=0;" edge="1" parent="G9pF4uTXSzu1Kpu80Hzo-1" source="G9pF4uTXSzu1Kpu80Hzo-2" target="G9pF4uTXSzu1Kpu80Hzo-5">
          <mxGeometry relative="1" as="geometry" />
        </mxCell>
        <mxCell id="Tc7A6N6MrH_39aB0lbsp-3" style="edgeStyle=orthogonalEdgeStyle;rounded=0;orthogonalLoop=1;jettySize=auto;html=1;exitX=0;exitY=0.5;exitDx=0;exitDy=0;" edge="1" parent="G9pF4uTXSzu1Kpu80Hzo-1" source="G9pF4uTXSzu1Kpu80Hzo-2" target="G9pF4uTXSzu1Kpu80Hzo-6">
          <mxGeometry relative="1" as="geometry" />
        </mxCell>
        <mxCell id="Tc7A6N6MrH_39aB0lbsp-4" style="edgeStyle=orthogonalEdgeStyle;rounded=0;orthogonalLoop=1;jettySize=auto;html=1;exitX=1;exitY=0.5;exitDx=0;exitDy=0;entryX=0.5;entryY=1;entryDx=0;entryDy=0;" edge="1" parent="G9pF4uTXSzu1Kpu80Hzo-1" source="G9pF4uTXSzu1Kpu80Hzo-2" target="G9pF4uTXSzu1Kpu80Hzo-9">
          <mxGeometry relative="1" as="geometry" />
        </mxCell>
        <mxCell id="Tc7A6N6MrH_39aB0lbsp-5" style="edgeStyle=orthogonalEdgeStyle;rounded=0;orthogonalLoop=1;jettySize=auto;html=1;exitX=1;exitY=0.5;exitDx=0;exitDy=0;" edge="1" parent="G9pF4uTXSzu1Kpu80Hzo-1" source="G9pF4uTXSzu1Kpu80Hzo-2" target="G9pF4uTXSzu1Kpu80Hzo-10">
          <mxGeometry relative="1" as="geometry" />
        </mxCell>
        <mxCell id="Tc7A6N6MrH_39aB0lbsp-6" style="edgeStyle=orthogonalEdgeStyle;rounded=0;orthogonalLoop=1;jettySize=auto;html=1;exitX=1;exitY=0.5;exitDx=0;exitDy=0;entryX=0.5;entryY=0;entryDx=0;entryDy=0;" edge="1" parent="G9pF4uTXSzu1Kpu80Hzo-1" source="G9pF4uTXSzu1Kpu80Hzo-2" target="G9pF4uTXSzu1Kpu80Hzo-12">
          <mxGeometry relative="1" as="geometry" />
        </mxCell>
        <mxCell id="Tc7A6N6MrH_39aB0lbsp-7" style="edgeStyle=orthogonalEdgeStyle;rounded=0;orthogonalLoop=1;jettySize=auto;html=1;exitX=1;exitY=0.5;exitDx=0;exitDy=0;entryX=0.5;entryY=1;entryDx=0;entryDy=0;" edge="1" parent="G9pF4uTXSzu1Kpu80Hzo-1" source="G9pF4uTXSzu1Kpu80Hzo-2" target="G9pF4uTXSzu1Kpu80Hzo-11">
          <mxGeometry relative="1" as="geometry" />
        </mxCell>
        <mxCell id="Tc7A6N6MrH_39aB0lbsp-8" style="edgeStyle=orthogonalEdgeStyle;rounded=0;orthogonalLoop=1;jettySize=auto;html=1;exitX=1;exitY=0.5;exitDx=0;exitDy=0;entryX=0.5;entryY=1;entryDx=0;entryDy=0;" edge="1" parent="G9pF4uTXSzu1Kpu80Hzo-1" source="G9pF4uTXSzu1Kpu80Hzo-2" target="G9pF4uTXSzu1Kpu80Hzo-15">
          <mxGeometry relative="1" as="geometry" />
        </mxCell>
        <mxCell id="Tc7A6N6MrH_39aB0lbsp-9" style="edgeStyle=orthogonalEdgeStyle;rounded=0;orthogonalLoop=1;jettySize=auto;html=1;exitX=1;exitY=0.5;exitDx=0;exitDy=0;entryX=0.5;entryY=0;entryDx=0;entryDy=0;" edge="1" parent="G9pF4uTXSzu1Kpu80Hzo-1" source="G9pF4uTXSzu1Kpu80Hzo-2" target="G9pF4uTXSzu1Kpu80Hzo-16">
          <mxGeometry relative="1" as="geometry" />
        </mxCell>
        <mxCell id="Tc7A6N6MrH_39aB0lbsp-10" style="edgeStyle=orthogonalEdgeStyle;rounded=0;orthogonalLoop=1;jettySize=auto;html=1;exitX=0.5;exitY=1;exitDx=0;exitDy=0;" edge="1" parent="G9pF4uTXSzu1Kpu80Hzo-1" source="G9pF4uTXSzu1Kpu80Hzo-2" target="G9pF4uTXSzu1Kpu80Hzo-8">
          <mxGeometry relative="1" as="geometry" />
        </mxCell>
        <mxCell id="Tc7A6N6MrH_39aB0lbsp-11" style="edgeStyle=orthogonalEdgeStyle;rounded=0;orthogonalLoop=1;jettySize=auto;html=1;exitX=0.5;exitY=0;exitDx=0;exitDy=0;entryX=0.5;entryY=1;entryDx=0;entryDy=0;" edge="1" parent="G9pF4uTXSzu1Kpu80Hzo-1" source="G9pF4uTXSzu1Kpu80Hzo-2" target="G9pF4uTXSzu1Kpu80Hzo-7">
          <mxGeometry relative="1" as="geometry" />
        </mxCell>
        <mxCell id="Tc7A6N6MrH_39aB0lbsp-12" style="edgeStyle=orthogonalEdgeStyle;rounded=0;orthogonalLoop=1;jettySize=auto;html=1;exitX=0;exitY=0.5;exitDx=0;exitDy=0;entryX=0.5;entryY=1;entryDx=0;entryDy=0;" edge="1" parent="G9pF4uTXSzu1Kpu80Hzo-1" source="G9pF4uTXSzu1Kpu80Hzo-2" target="G9pF4uTXSzu1Kpu80Hzo-13">
          <mxGeometry relative="1" as="geometry" />
        </mxCell>
        <mxCell id="Tc7A6N6MrH_39aB0lbsp-13" style="edgeStyle=orthogonalEdgeStyle;rounded=0;orthogonalLoop=1;jettySize=auto;html=1;exitX=0;exitY=0.5;exitDx=0;exitDy=0;entryX=0.5;entryY=0;entryDx=0;entryDy=0;" edge="1" parent="G9pF4uTXSzu1Kpu80Hzo-1" source="G9pF4uTXSzu1Kpu80Hzo-2" target="G9pF4uTXSzu1Kpu80Hzo-14">
          <mxGeometry relative="1" as="geometry" />
        </mxCell>
        <mxCell id="Tc7A6N6MrH_39aB0lbsp-14" style="edgeStyle=orthogonalEdgeStyle;rounded=0;orthogonalLoop=1;jettySize=auto;html=1;exitX=0;exitY=0.5;exitDx=0;exitDy=0;entryX=0.5;entryY=1;entryDx=0;entryDy=0;" edge="1" parent="G9pF4uTXSzu1Kpu80Hzo-1" source="G9pF4uTXSzu1Kpu80Hzo-2" target="G9pF4uTXSzu1Kpu80Hzo-19">
          <mxGeometry relative="1" as="geometry" />
        </mxCell>
        <mxCell id="Tc7A6N6MrH_39aB0lbsp-15" style="edgeStyle=orthogonalEdgeStyle;rounded=0;orthogonalLoop=1;jettySize=auto;html=1;exitX=0;exitY=0.5;exitDx=0;exitDy=0;entryX=0.5;entryY=0;entryDx=0;entryDy=0;" edge="1" parent="G9pF4uTXSzu1Kpu80Hzo-1" source="G9pF4uTXSzu1Kpu80Hzo-2" target="G9pF4uTXSzu1Kpu80Hzo-20">
          <mxGeometry relative="1" as="geometry" />
        </mxCell>
        <mxCell id="G9pF4uTXSzu1Kpu80Hzo-2" value="UsuÃ¡rio" style="shape=hexagon;perimeter=hexagonPerimeter2;whiteSpace=wrap;html=1;fixedSize=1;" vertex="1" parent="G9pF4uTXSzu1Kpu80Hzo-1">
          <mxGeometry x="-2945" y="339.99999999999994" width="150" height="46.82" as="geometry" />
        </mxCell>
        <mxCell id="G9pF4uTXSzu1Kpu80Hzo-3" value="Coletar tokens" style="ellipse;whiteSpace=wrap;html=1;" vertex="1" parent="G9pF4uTXSzu1Kpu80Hzo-1">
          <mxGeometry x="-3220" y="200" width="120" height="80" as="geometry" />
        </mxCell>
        <mxCell id="G9pF4uTXSzu1Kpu80Hzo-4" value="&lt;span&gt;Utilizar o comando de largar o item (poÃ§Ã£o, chave ou machado)&lt;/span&gt;" style="ellipse;whiteSpace=wrap;html=1;" vertex="1" parent="G9pF4uTXSzu1Kpu80Hzo-1">
          <mxGeometry x="-3220" y="460" width="120" height="80" as="geometry" />
        </mxCell>
        <mxCell id="G9pF4uTXSzu1Kpu80Hzo-5" value="&lt;span&gt;Utilizar o comando&amp;nbsp; de visualizaÃ§Ã£o inventÃ¡rio&lt;/span&gt;" style="ellipse;whiteSpace=wrap;html=1;" vertex="1" parent="G9pF4uTXSzu1Kpu80Hzo-1">
          <mxGeometry x="-3080" y="200" width="120" height="80" as="geometry" />
        </mxCell>
        <mxCell id="G9pF4uTXSzu1Kpu80Hzo-6" value="&lt;span&gt;Selecionar a porta desejada&lt;/span&gt;" style="ellipse;whiteSpace=wrap;html=1;" vertex="1" parent="G9pF4uTXSzu1Kpu80Hzo-1">
          <mxGeometry x="-3080" y="460" width="120" height="80" as="geometry" />
        </mxCell>
        <mxCell id="G9pF4uTXSzu1Kpu80Hzo-7" value="&lt;span&gt;Utilizar o comando&amp;nbsp; de visualizaÃ§Ã£o da sala&lt;/span&gt;" style="ellipse;whiteSpace=wrap;html=1;" vertex="1" parent="G9pF4uTXSzu1Kpu80Hzo-1">
          <mxGeometry x="-2930" y="200" width="120" height="80" as="geometry" />
        </mxCell>
        <mxCell id="G9pF4uTXSzu1Kpu80Hzo-8" value="&lt;span&gt;Utilizar os comandos de navegaÃ§Ã£o&lt;/span&gt;" style="ellipse;whiteSpace=wrap;html=1;" vertex="1" parent="G9pF4uTXSzu1Kpu80Hzo-1">
          <mxGeometry x="-2930" y="460" width="120" height="80" as="geometry" />
        </mxCell>
        <mxCell id="G9pF4uTXSzu1Kpu80Hzo-9" value="&lt;span style=&quot;color: rgb(51 , 51 , 51)&quot;&gt;Utilizar um machado para matar a troll&lt;/span&gt;" style="ellipse;whiteSpace=wrap;html=1;" vertex="1" parent="G9pF4uTXSzu1Kpu80Hzo-1">
          <mxGeometry x="-2770" y="200" width="120" height="80" as="geometry" />
        </mxCell>
        <mxCell id="G9pF4uTXSzu1Kpu80Hzo-10" value="&lt;span style=&quot;color: rgb(51 , 51 , 51)&quot;&gt;Utilizar uma poÃ§Ã£o para trancar a porta&lt;/span&gt;" style="ellipse;whiteSpace=wrap;html=1;" vertex="1" parent="G9pF4uTXSzu1Kpu80Hzo-1">
          <mxGeometry x="-2770" y="460" width="120" height="80" as="geometry" />
        </mxCell>
        <mxCell id="G9pF4uTXSzu1Kpu80Hzo-11" value="" style="ellipse;whiteSpace=wrap;html=1;" vertex="1" parent="G9pF4uTXSzu1Kpu80Hzo-1">
          <mxGeometry x="-2620" y="200" width="120" height="80" as="geometry" />
        </mxCell>
        <mxCell id="G9pF4uTXSzu1Kpu80Hzo-12" value="&lt;span&gt;Utilizar o comando de coletar o item (poÃ§Ã£o, chave ou machado)&lt;/span&gt;" style="ellipse;whiteSpace=wrap;html=1;" vertex="1" parent="G9pF4uTXSzu1Kpu80Hzo-1">
          <mxGeometry x="-2620" y="460" width="120" height="80" as="geometry" />
        </mxCell>
        <mxCell id="G9pF4uTXSzu1Kpu80Hzo-13" value="" style="ellipse;whiteSpace=wrap;html=1;" vertex="1" parent="G9pF4uTXSzu1Kpu80Hzo-1">
          <mxGeometry x="-3370" y="200" width="120" height="80" as="geometry" />
        </mxCell>
        <mxCell id="G9pF4uTXSzu1Kpu80Hzo-14" value="" style="ellipse;whiteSpace=wrap;html=1;" vertex="1" parent="G9pF4uTXSzu1Kpu80Hzo-1">
          <mxGeometry x="-3370" y="460" width="120" height="80" as="geometry" />
        </mxCell>
        <mxCell id="G9pF4uTXSzu1Kpu80Hzo-15" value="" style="ellipse;whiteSpace=wrap;html=1;" vertex="1" parent="G9pF4uTXSzu1Kpu80Hzo-1">
          <mxGeometry x="-2470" y="200" width="120" height="80" as="geometry" />
        </mxCell>
        <mxCell id="G9pF4uTXSzu1Kpu80Hzo-16" value="" style="ellipse;whiteSpace=wrap;html=1;" vertex="1" parent="G9pF4uTXSzu1Kpu80Hzo-1">
          <mxGeometry x="-2470" y="460" width="120" height="80" as="geometry" />
        </mxCell>
        <mxCell id="G9pF4uTXSzu1Kpu80Hzo-17" value="" style="ellipse;whiteSpace=wrap;html=1;" vertex="1" parent="G9pF4uTXSzu1Kpu80Hzo-1">
          <mxGeometry x="-2320" y="200" width="120" height="80" as="geometry" />
        </mxCell>
        <mxCell id="G9pF4uTXSzu1Kpu80Hzo-18" value="" style="ellipse;whiteSpace=wrap;html=1;" vertex="1" parent="G9pF4uTXSzu1Kpu80Hzo-1">
          <mxGeometry x="-2320" y="460" width="120" height="80" as="geometry" />
        </mxCell>
        <mxCell id="G9pF4uTXSzu1Kpu80Hzo-19" value="" style="ellipse;whiteSpace=wrap;html=1;" vertex="1" parent="G9pF4uTXSzu1Kpu80Hzo-1">
          <mxGeometry x="-3510" y="200" width="120" height="80" as="geometry" />
        </mxCell>
        <mxCell id="G9pF4uTXSzu1Kpu80Hzo-20" value="" style="ellipse;whiteSpace=wrap;html=1;" vertex="1" parent="G9pF4uTXSzu1Kpu80Hzo-1">
          <mxGeometry x="-3510" y="460" width="120" height="80" as="geometry" />
        </mxCell>
        <mxCell id="G9pF4uTXSzu1Kpu80Hzo-21" value="" style="ellipse;whiteSpace=wrap;html=1;" vertex="1" parent="G9pF4uTXSzu1Kpu80Hzo-1">
          <mxGeometry x="-2180" y="200" width="120" height="80" as="geometry" />
        </mxCell>
        <mxCell id="G9pF4uTXSzu1Kpu80Hzo-22" value="" style="ellipse;whiteSpace=wrap;html=1;" vertex="1" parent="G9pF4uTXSzu1Kpu80Hzo-1">
          <mxGeometry x="-2180" y="460" width="120" height="80" as="geometry" />
        </mxCell>
        <mxCell id="G9pF4uTXSzu1Kpu80Hzo-23" value="" style="ellipse;whiteSpace=wrap;html=1;" vertex="1" parent="G9pF4uTXSzu1Kpu80Hzo-1">
          <mxGeometry x="-3650" y="200" width="120" height="80" as="geometry" />
        </mxCell>
        <mxCell id="G9pF4uTXSzu1Kpu80Hzo-24" value="" style="ellipse;whiteSpace=wrap;html=1;" vertex="1" parent="G9pF4uTXSzu1Kpu80Hzo-1">
          <mxGeometry x="-3650" y="460" width="120" height="80" as="geometry" />
        </mxCell>
      </root>
    </mxGraphModel>
  </diagram>
  <diagram id="noQitv6B0HrpNdzYtov9" name="PÃ¡gina-3">
    <mxGraphModel dx="4654" dy="848" grid="1" gridSize="10" guides="1" tooltips="1" connect="1" arrows="1" fold="1" page="1" pageScale="1" pageWidth="827" pageHeight="1169" math="0" shadow="0">
      <root>
        <mxCell id="P9bZgve30uA1GbF2zzmT-0" />
        <mxCell id="P9bZgve30uA1GbF2zzmT-1" parent="P9bZgve30uA1GbF2zzmT-0" />
        <mxCell id="2wjWAV_TTE7EXWR5_jJV-3" style="edgeStyle=orthogonalEdgeStyle;rounded=0;orthogonalLoop=1;jettySize=auto;html=1;exitX=0.5;exitY=0;exitDx=0;exitDy=0;dashed=1;" edge="1" parent="P9bZgve30uA1GbF2zzmT-1" source="R1wy9Pt7vK92fC8TsjFm-0" target="fc5zrPU8HhaIOkE2vUeg-0">
          <mxGeometry relative="1" as="geometry" />
        </mxCell>
        <mxCell id="mIIF6MTqrqTyKahMi_m_-5" style="edgeStyle=orthogonalEdgeStyle;rounded=0;orthogonalLoop=1;jettySize=auto;html=1;exitX=0.5;exitY=0;exitDx=0;exitDy=0;dashed=1;" edge="1" parent="P9bZgve30uA1GbF2zzmT-1" source="R1wy9Pt7vK92fC8TsjFm-0" target="2wjWAV_TTE7EXWR5_jJV-0">
          <mxGeometry relative="1" as="geometry" />
        </mxCell>
        <mxCell id="mIIF6MTqrqTyKahMi_m_-6" style="edgeStyle=orthogonalEdgeStyle;rounded=0;orthogonalLoop=1;jettySize=auto;html=1;exitX=0.5;exitY=1;exitDx=0;exitDy=0;entryX=0.5;entryY=0;entryDx=0;entryDy=0;dashed=1;" edge="1" parent="P9bZgve30uA1GbF2zzmT-1" source="R1wy9Pt7vK92fC8TsjFm-0" target="mIIF6MTqrqTyKahMi_m_-3">
          <mxGeometry relative="1" as="geometry" />
        </mxCell>
        <mxCell id="R1wy9Pt7vK92fC8TsjFm-0" value="UsuÃ¡rio" style="shape=hexagon;perimeter=hexagonPerimeter2;whiteSpace=wrap;html=1;fixedSize=1;" vertex="1" parent="P9bZgve30uA1GbF2zzmT-1">
          <mxGeometry x="-3044" y="489.99999999999994" width="150" height="46.82" as="geometry" />
        </mxCell>
        <mxCell id="kb65RiWAc39JccjAr8-A-1" style="edgeStyle=orthogonalEdgeStyle;rounded=0;orthogonalLoop=1;jettySize=auto;html=1;exitX=0.5;exitY=0;exitDx=0;exitDy=0;entryX=0.5;entryY=1;entryDx=0;entryDy=0;dashed=1;" edge="1" parent="P9bZgve30uA1GbF2zzmT-1" source="rXwcTed9gjFX1PEf0OIn-0" target="mIIF6MTqrqTyKahMi_m_-0">
          <mxGeometry relative="1" as="geometry" />
        </mxCell>
        <mxCell id="kb65RiWAc39JccjAr8-A-2" style="edgeStyle=orthogonalEdgeStyle;rounded=0;orthogonalLoop=1;jettySize=auto;html=1;exitX=0;exitY=0.5;exitDx=0;exitDy=0;entryX=1;entryY=0.5;entryDx=0;entryDy=0;dashed=1;" edge="1" parent="P9bZgve30uA1GbF2zzmT-1" source="rXwcTed9gjFX1PEf0OIn-0" target="kb65RiWAc39JccjAr8-A-0">
          <mxGeometry relative="1" as="geometry" />
        </mxCell>
        <mxCell id="OkBCWMaEzFLGHRCbEknm-6" style="edgeStyle=orthogonalEdgeStyle;rounded=0;orthogonalLoop=1;jettySize=auto;html=1;exitX=0;exitY=0.5;exitDx=0;exitDy=0;entryX=0.5;entryY=0;entryDx=0;entryDy=0;dashed=1;" edge="1" parent="P9bZgve30uA1GbF2zzmT-1" source="rXwcTed9gjFX1PEf0OIn-0" target="OkBCWMaEzFLGHRCbEknm-1">
          <mxGeometry relative="1" as="geometry">
            <Array as="points">
              <mxPoint x="-2905" y="838" />
              <mxPoint x="-2894" y="838" />
            </Array>
          </mxGeometry>
        </mxCell>
        <mxCell id="OkBCWMaEzFLGHRCbEknm-7" style="edgeStyle=orthogonalEdgeStyle;rounded=0;orthogonalLoop=1;jettySize=auto;html=1;exitX=1;exitY=0.5;exitDx=0;exitDy=0;entryX=0.5;entryY=0;entryDx=0;entryDy=0;dashed=1;" edge="1" parent="P9bZgve30uA1GbF2zzmT-1" source="rXwcTed9gjFX1PEf0OIn-0" target="OkBCWMaEzFLGHRCbEknm-2">
          <mxGeometry relative="1" as="geometry">
            <Array as="points">
              <mxPoint x="-2580" y="783" />
            </Array>
          </mxGeometry>
        </mxCell>
        <mxCell id="rXwcTed9gjFX1PEf0OIn-0" value="Sistema" style="shape=hexagon;perimeter=hexagonPerimeter2;whiteSpace=wrap;html=1;fixedSize=1;" vertex="1" parent="P9bZgve30uA1GbF2zzmT-1">
          <mxGeometry x="-2905" y="760" width="150" height="46.82" as="geometry" />
        </mxCell>
        <mxCell id="2wjWAV_TTE7EXWR5_jJV-1" style="edgeStyle=orthogonalEdgeStyle;rounded=0;orthogonalLoop=1;jettySize=auto;html=1;exitX=1;exitY=0.5;exitDx=0;exitDy=0;entryX=0;entryY=0.5;entryDx=0;entryDy=0;" edge="1" parent="P9bZgve30uA1GbF2zzmT-1" source="fc5zrPU8HhaIOkE2vUeg-0" target="2wjWAV_TTE7EXWR5_jJV-0">
          <mxGeometry relative="1" as="geometry" />
        </mxCell>
        <mxCell id="fc5zrPU8HhaIOkE2vUeg-0" value="&lt;span&gt;Utilizar os comandos de navegaÃ§Ã£o&lt;/span&gt;" style="ellipse;whiteSpace=wrap;html=1;" vertex="1" parent="P9bZgve30uA1GbF2zzmT-1">
          <mxGeometry x="-3160" y="350" width="120" height="80" as="geometry" />
        </mxCell>
        <mxCell id="mIIF6MTqrqTyKahMi_m_-1" style="edgeStyle=orthogonalEdgeStyle;rounded=0;orthogonalLoop=1;jettySize=auto;html=1;exitX=0.5;exitY=1;exitDx=0;exitDy=0;entryX=0.5;entryY=0;entryDx=0;entryDy=0;" edge="1" parent="P9bZgve30uA1GbF2zzmT-1" source="2wjWAV_TTE7EXWR5_jJV-0" target="mIIF6MTqrqTyKahMi_m_-0">
          <mxGeometry relative="1" as="geometry" />
        </mxCell>
        <mxCell id="2wjWAV_TTE7EXWR5_jJV-0" value="&lt;span&gt;Utilizar o comando de coletar o item (poÃ§Ã£o, chave ou machado)&lt;/span&gt;" style="ellipse;whiteSpace=wrap;html=1;" vertex="1" parent="P9bZgve30uA1GbF2zzmT-1">
          <mxGeometry x="-2890" y="350" width="120" height="80" as="geometry" />
        </mxCell>
        <mxCell id="mIIF6MTqrqTyKahMi_m_-4" style="edgeStyle=orthogonalEdgeStyle;rounded=0;orthogonalLoop=1;jettySize=auto;html=1;exitX=0;exitY=0.5;exitDx=0;exitDy=0;" edge="1" parent="P9bZgve30uA1GbF2zzmT-1" source="mIIF6MTqrqTyKahMi_m_-0" target="mIIF6MTqrqTyKahMi_m_-3">
          <mxGeometry relative="1" as="geometry" />
        </mxCell>
        <mxCell id="mIIF6MTqrqTyKahMi_m_-0" value="&lt;span&gt;Listar portas e as respectivas identificaÃ§Ãµes&lt;/span&gt;" style="ellipse;whiteSpace=wrap;html=1;" vertex="1" parent="P9bZgve30uA1GbF2zzmT-1">
          <mxGeometry x="-2890" y="600" width="120" height="80" as="geometry" />
        </mxCell>
        <mxCell id="OkBCWMaEzFLGHRCbEknm-10" style="edgeStyle=orthogonalEdgeStyle;rounded=0;orthogonalLoop=1;jettySize=auto;html=1;exitX=0.5;exitY=1;exitDx=0;exitDy=0;entryX=0.5;entryY=0;entryDx=0;entryDy=0;" edge="1" parent="P9bZgve30uA1GbF2zzmT-1" source="mIIF6MTqrqTyKahMi_m_-3" target="kb65RiWAc39JccjAr8-A-0">
          <mxGeometry relative="1" as="geometry" />
        </mxCell>
        <mxCell id="mIIF6MTqrqTyKahMi_m_-3" value="&lt;span&gt;Utilizar os comandos de navegaÃ§Ã£o&lt;/span&gt;" style="ellipse;whiteSpace=wrap;html=1;" vertex="1" parent="P9bZgve30uA1GbF2zzmT-1">
          <mxGeometry x="-3140" y="600" width="120" height="80" as="geometry" />
        </mxCell>
        <mxCell id="8c7umGx8-uDd1L3hc6Jh-0" style="edgeStyle=orthogonalEdgeStyle;rounded=0;orthogonalLoop=1;jettySize=auto;html=1;exitX=0;exitY=0.5;exitDx=0;exitDy=0;" edge="1" parent="P9bZgve30uA1GbF2zzmT-1" source="kb65RiWAc39JccjAr8-A-0" target="kb65RiWAc39JccjAr8-A-3">
          <mxGeometry relative="1" as="geometry" />
        </mxCell>
        <mxCell id="kb65RiWAc39JccjAr8-A-0" value="Colocar o jogador na sala conectada pela porta selecionada" style="ellipse;whiteSpace=wrap;html=1;" vertex="1" parent="P9bZgve30uA1GbF2zzmT-1">
          <mxGeometry x="-3140" y="743.41" width="120" height="80" as="geometry" />
        </mxCell>
        <mxCell id="8c7umGx8-uDd1L3hc6Jh-1" style="edgeStyle=orthogonalEdgeStyle;rounded=0;orthogonalLoop=1;jettySize=auto;html=1;exitX=1;exitY=0.5;exitDx=0;exitDy=0;" edge="1" parent="P9bZgve30uA1GbF2zzmT-1" source="kb65RiWAc39JccjAr8-A-3" target="OkBCWMaEzFLGHRCbEknm-0">
          <mxGeometry relative="1" as="geometry" />
        </mxCell>
        <mxCell id="kb65RiWAc39JccjAr8-A-3" value="&lt;span&gt;Utilizar os comandos de navegaÃ§Ã£o&lt;/span&gt;" style="ellipse;whiteSpace=wrap;html=1;" vertex="1" parent="P9bZgve30uA1GbF2zzmT-1">
          <mxGeometry x="-3250" y="870" width="120" height="80" as="geometry" />
        </mxCell>
        <mxCell id="8c7umGx8-uDd1L3hc6Jh-2" style="edgeStyle=orthogonalEdgeStyle;rounded=0;orthogonalLoop=1;jettySize=auto;html=1;exitX=1;exitY=0.5;exitDx=0;exitDy=0;entryX=0;entryY=0.5;entryDx=0;entryDy=0;" edge="1" parent="P9bZgve30uA1GbF2zzmT-1" source="OkBCWMaEzFLGHRCbEknm-0" target="OkBCWMaEzFLGHRCbEknm-1">
          <mxGeometry relative="1" as="geometry" />
        </mxCell>
        <mxCell id="OkBCWMaEzFLGHRCbEknm-0" value="Coletar tokens" style="ellipse;whiteSpace=wrap;html=1;" vertex="1" parent="P9bZgve30uA1GbF2zzmT-1">
          <mxGeometry x="-3100" y="870" width="120" height="80" as="geometry" />
        </mxCell>
        <mxCell id="8c7umGx8-uDd1L3hc6Jh-3" style="edgeStyle=orthogonalEdgeStyle;rounded=0;orthogonalLoop=1;jettySize=auto;html=1;exitX=1;exitY=0.5;exitDx=0;exitDy=0;entryX=0;entryY=0.5;entryDx=0;entryDy=0;" edge="1" parent="P9bZgve30uA1GbF2zzmT-1" source="OkBCWMaEzFLGHRCbEknm-1" target="OkBCWMaEzFLGHRCbEknm-8">
          <mxGeometry relative="1" as="geometry" />
        </mxCell>
        <mxCell id="OkBCWMaEzFLGHRCbEknm-1" value="&lt;span&gt;Listar portas e as respectivas identificaÃ§Ãµes&lt;/span&gt;" style="ellipse;whiteSpace=wrap;html=1;" vertex="1" parent="P9bZgve30uA1GbF2zzmT-1">
          <mxGeometry x="-2954" y="870" width="120" height="80" as="geometry" />
        </mxCell>
        <mxCell id="8c7umGx8-uDd1L3hc6Jh-5" style="edgeStyle=orthogonalEdgeStyle;rounded=0;orthogonalLoop=1;jettySize=auto;html=1;exitX=1;exitY=0.5;exitDx=0;exitDy=0;entryX=0;entryY=0.5;entryDx=0;entryDy=0;" edge="1" parent="P9bZgve30uA1GbF2zzmT-1" source="OkBCWMaEzFLGHRCbEknm-2" target="fc5zrPU8HhaIOkE2vUeg-0">
          <mxGeometry relative="1" as="geometry">
            <Array as="points">
              <mxPoint x="-2500" y="910" />
              <mxPoint x="-2500" y="330" />
              <mxPoint x="-3180" y="330" />
              <mxPoint x="-3180" y="390" />
            </Array>
          </mxGeometry>
        </mxCell>
        <mxCell id="OkBCWMaEzFLGHRCbEknm-2" value="Colocar o jogador na sala conectada pela porta selecionada" style="ellipse;whiteSpace=wrap;html=1;" vertex="1" parent="P9bZgve30uA1GbF2zzmT-1">
          <mxGeometry x="-2640" y="870" width="120" height="80" as="geometry" />
        </mxCell>
        <mxCell id="OkBCWMaEzFLGHRCbEknm-4" style="edgeStyle=orthogonalEdgeStyle;rounded=0;orthogonalLoop=1;jettySize=auto;html=1;exitX=0;exitY=0.5;exitDx=0;exitDy=0;entryX=0.5;entryY=1;entryDx=0;entryDy=0;dashed=1;" edge="1" parent="P9bZgve30uA1GbF2zzmT-1" source="OkBCWMaEzFLGHRCbEknm-3" target="kb65RiWAc39JccjAr8-A-3">
          <mxGeometry relative="1" as="geometry">
            <Array as="points">
              <mxPoint x="-3190" y="1020" />
              <mxPoint x="-3190" y="1020" />
            </Array>
          </mxGeometry>
        </mxCell>
        <mxCell id="OkBCWMaEzFLGHRCbEknm-5" style="edgeStyle=orthogonalEdgeStyle;rounded=0;orthogonalLoop=1;jettySize=auto;html=1;exitX=1;exitY=0.5;exitDx=0;exitDy=0;entryX=0.5;entryY=1;entryDx=0;entryDy=0;dashed=1;" edge="1" parent="P9bZgve30uA1GbF2zzmT-1" source="OkBCWMaEzFLGHRCbEknm-3" target="OkBCWMaEzFLGHRCbEknm-0">
          <mxGeometry relative="1" as="geometry">
            <Array as="points">
              <mxPoint x="-3040" y="1030" />
              <mxPoint x="-3040" y="1030" />
            </Array>
          </mxGeometry>
        </mxCell>
        <mxCell id="OkBCWMaEzFLGHRCbEknm-9" style="edgeStyle=orthogonalEdgeStyle;rounded=0;orthogonalLoop=1;jettySize=auto;html=1;exitX=1;exitY=0.5;exitDx=0;exitDy=0;entryX=0.5;entryY=1;entryDx=0;entryDy=0;dashed=1;" edge="1" parent="P9bZgve30uA1GbF2zzmT-1" source="OkBCWMaEzFLGHRCbEknm-3" target="OkBCWMaEzFLGHRCbEknm-8">
          <mxGeometry relative="1" as="geometry" />
        </mxCell>
        <mxCell id="OkBCWMaEzFLGHRCbEknm-3" value="UsuÃ¡rio" style="shape=hexagon;perimeter=hexagonPerimeter2;whiteSpace=wrap;html=1;fixedSize=1;" vertex="1" parent="P9bZgve30uA1GbF2zzmT-1">
          <mxGeometry x="-3190" y="1040" width="150" height="46.82" as="geometry" />
        </mxCell>
        <mxCell id="8c7umGx8-uDd1L3hc6Jh-4" style="edgeStyle=orthogonalEdgeStyle;rounded=0;orthogonalLoop=1;jettySize=auto;html=1;exitX=1;exitY=0.5;exitDx=0;exitDy=0;entryX=0;entryY=0.5;entryDx=0;entryDy=0;" edge="1" parent="P9bZgve30uA1GbF2zzmT-1" source="OkBCWMaEzFLGHRCbEknm-8" target="OkBCWMaEzFLGHRCbEknm-2">
          <mxGeometry relative="1" as="geometry" />
        </mxCell>
        <mxCell id="OkBCWMaEzFLGHRCbEknm-8" value="&lt;span&gt;Utilizar os comandos de navegaÃ§Ã£o&lt;/span&gt;" style="ellipse;whiteSpace=wrap;html=1;" vertex="1" parent="P9bZgve30uA1GbF2zzmT-1">
          <mxGeometry x="-2800" y="870" width="120" height="80" as="geometry" />
        </mxCell>
      </root>
    </mxGraphModel>
  </diagram>
</mxfile>
